# xmcd
#
# Track frame offsets:
#	150
#	10515
#	22222
#	34203
#	46027
#	55657
#	68067
#	81803
#	94762
#	105221
#
# Disc length: 1615 seconds
#
# Revision: 1
# Processed by: cddbd v1.4PL0 Copyright (c) Steve Scherf et al.
# Submitted via: audiograbber 1.81.02
#
DISCID=6b064d0a
DTITLE=Chuck Wagon Gang - Still Rollin'
DYEAR=1990
DGENRE=Gospel
TTITLE0=Turn Your Radio On
TTITLE1=When You Say Jesus, You've Said It All
TTITLE2=When We Sing Around The Throne Eternal
TTITLE3=Love's What He's All About
TTITLE4=In The Name Of Jesus
TTITLE5=Waiting For The Call
TTITLE6=Homecoming Day
TTITLE7=Fourty Years Ago
TTITLE8=Into The Choir
TTITLE9=Silver And Gold
EXTD=
EXTT0=
EXTT1=
EXTT2=
EXTT3=
EXTT4=
EXTT5=
EXTT6=
EXTT7=
EXTT8=
EXTT9=
PLAYORDER=
